<?xml version="1.0" encoding="utf-8"?>
<!-- Generator: Adobe Illustrator 27.5.0, SVG Export Plug-In . SVG Version: 6.00 Build 0)  -->
<svg version="1.1" id="Layer_1" xmlns="http://www.w3.org/2000/svg" xmlns:xlink="http://www.w3.org/1999/xlink" x="0px" y="0px"
	 viewBox="0 0 512 512" style="enable-background:new 0 0 512 512;" xml:space="preserve">
<style type="text/css">
	.st0{fill:#FFCE29;}
	.st1{fill:#F96464;}
	.st2{opacity:0.4;}
	.st3{fill:#FFFFFF;}
	.st4{opacity:0.08;}
	.st5{fill:#F2F0F0;}
	.st6{fill:#6D6D6D;}
	.st7{fill:#66D5F2;}
</style>
<g id="_x32_5_Rocket">
	<g>
		<g>
			<path class="st0" d="M149.76,446.67c-14.51,14.51-70.1,37.43-110.04,52.68c-16.94,6.47-33.52-10.11-27.05-27.05
				c15.25-39.94,38.17-95.53,52.68-110.04c23.32-23.32,61.09-23.32,84.42,0C173.08,385.58,173.08,423.35,149.76,446.67z"/>
		</g>
		<g>
			<path class="st1" d="M334.15,454.99l-51.2,51.2c-10.79,10.79-29.2,5.82-33.11-8.92l-49.24-185.8L14.74,262.19
				C0,258.28-4.96,239.86,5.82,229.07l51.21-51.21c12.79-12.79,30.28-19.77,48.37-19.29l191.21,5.04l51.8,51.8l5.04,191.21
				C353.92,424.71,346.95,442.2,334.15,454.99L334.15,454.99z"/>
		</g>
		<g class="st2">
			<g>
				<path class="st3" d="M23.7,230.48l24.87-24.92c3.19-3.2,8.36-3.2,11.56-0.01c3.19,3.19,3.19,8.36,0.01,11.55l-24.87,24.92
					c-3.19,3.2-8.36,3.2-11.56,0.01C20.52,238.84,20.52,233.67,23.7,230.48z"/>
			</g>
		</g>
		<g class="st4">
			<path d="M334.13,455l-51.18,51.18c-10.78,10.78-29.19,5.85-33.12-8.93l-0.92-3.54c5.55,0.62,11.4-1.15,15.91-5.66l51.18-51.18
				c12.83-12.83,19.76-30.31,19.3-48.41l-5.05-191.22l18.18,18.18l5.05,191.22C353.92,424.73,346.95,442.18,334.13,455L334.13,455z"
				/>
		</g>
		<g>
			<path class="st5" d="M187.5,400c60.68-5.3,147.8-54.4,226.52-133.13c78.71-78.71,95.06-179.85,97.91-232.14
				C513,15.13,496.85-1.02,477.24,0.05c-52.27,2.86-153.4,19.24-232.1,97.94C166.41,176.72,117.32,263.83,112,324.5L187.5,400z"/>
		</g>
		<g class="st2">
			<g>
				<path class="st3" d="M153.73,241.43c-6.28,12.01-11.64,23.75-15.94,35.08c-1.13,2.98-0.35,6.33,1.9,8.58l0.03,0.03
					c4.19,4.19,11.24,2.63,13.34-2.91c4.05-10.72,9.12-21.86,15.08-33.28c1.65-3.16,1.11-7.03-1.41-9.55
					C162.82,235.49,156.28,236.55,153.73,241.43L153.73,241.43z"/>
			</g>
		</g>
		<g>
			<path class="st1" d="M481.49,166.47c22.07-51.24,28.74-100.31,30.45-131.73C513,15.13,496.85-1.02,477.24,0.05
				c-31.41,1.72-80.47,8.39-131.7,30.47L481.49,166.47z"/>
		</g>
		<g>
			<path class="st6" d="M189.19,420.31c-5.15,5.15-13.5,5.15-18.65,0l-78.83-78.83c-5.15-5.15-5.15-13.5,0-18.65s13.5-5.15,18.65,0
				l78.83,78.83C194.34,406.81,194.34,415.16,189.19,420.31z"/>
		</g>
		<g>
			<path class="st1" d="M188.44,359.88c-11.53,11.53-106.1,89.88-116.1,79.88c-10.08-10.08,68.27-104.66,79.8-116.18
				c11.62-11.62,46.42-30.19,56.5-20.11C218.64,313.46,200.06,348.26,188.44,359.88L188.44,359.88z"/>
		</g>
		<g>
			
				<ellipse transform="matrix(0.7071 -0.7071 0.7071 0.7071 -31.1172 287.0776)" class="st6" cx="330.97" cy="181.1" rx="79.89" ry="79.89"/>
		</g>
		<g>
			
				<ellipse transform="matrix(0.8832 -0.4691 0.4691 0.8832 -46.2782 176.4151)" class="st7" cx="330.97" cy="181.1" rx="61.22" ry="61.22"/>
		</g>
		<g class="st4">
			<path d="M414.04,266.87c-78.72,78.72-165.87,127.82-226.53,133.1l-13.36-13.36c60.66-5.28,147.81-54.38,226.53-133.1
				c78.68-78.68,95.05-179.85,97.9-232.15c0.35-6.28-1.12-12.28-3.89-17.37c10.78,5.78,17.95,17.48,17.25,30.73
				C509.09,87.01,492.72,188.19,414.04,266.87L414.04,266.87z"/>
		</g>
	</g>
</g>
</svg>
