<?xml version="1.0" encoding="utf-8"?>
<!-- Generator: Adobe Illustrator 27.5.0, SVG Export Plug-In . SVG Version: 6.00 Build 0)  -->
<svg version="1.1" id="Layer_1" xmlns="http://www.w3.org/2000/svg" xmlns:xlink="http://www.w3.org/1999/xlink" x="0px" y="0px"
	 viewBox="0 0 512 512" style="enable-background:new 0 0 512 512;" xml:space="preserve">
<style type="text/css">
	.st0{fill:#F0EBD7;}
	.st1{fill:#3B2F2D;}
	.st2{fill:#FFE8DA;}
	.st3{fill:#D1013E;}
	.st4{fill:#FCD9C2;}
	.st5{fill:#F5C8AB;}
	.st6{fill:#EDBD9F;}
	.st7{fill:#241D1B;}
	.st8{fill:#FFD4B8;}
	.st9{fill:#D9D4C2;}
	.st10{fill:#A80132;}
	.st11{fill:#FF4F6B;}
	.st12{fill:#FB2B3A;}
	.st13{fill:#FFFFFF;}
</style>
<g>
	<g>
		<g>
			<path d="M-5585.15-1874.71c2.6-4.23,2.7-9.56,0.28-13.89c-2.43-4.33-7.02-7.02-11.98-7.02c0,0-0.01,0-0.01,0l-187.97,0.15
				c-5.98,0.01-11.23,3.83-13.06,9.52l-65.3,202.91c-0.59,0.19-1.17,0.41-1.74,0.7c-9.22,4.78-30.55,16.48-42,27.84
				c-0.01,0.01-0.03,0.03-0.04,0.04c-0.15,0.15-0.29,0.29-0.43,0.43c-0.2,0.2-0.39,0.4-0.58,0.6c-0.24,0.25-0.46,0.49-0.69,0.73
				c-0.1,0.11-0.21,0.22-0.31,0.34c-0.3,0.33-0.59,0.66-0.86,0.99c-6.98,8.31-17.48,25.62-25.26,39c-0.2,0.27-0.4,0.55-0.56,0.85
				l-8.49,15.12l-5.03,7.62c-4.33,6.56-2.76,15.2,3.53,19.82l-3.84,9.29c-2.38,5.74-0.52,12.31,4.5,15.97l5.42,3.94
				c5.03,3.66,11.84,3.4,16.58-0.62l8.04-6.83c3.49,2.49,7.16,5.12,10.96,7.85l-4.26,10.32c-2.38,5.74-0.52,12.31,4.5,15.96
				l5.42,3.95c5.02,3.66,11.84,3.4,16.57-0.62l8.56-7.28c25.77,18.88,47.2,35.1,63.73,48.26c9.71,7.72,21.75,15.95,35.82,24.48
				l-1.95,6.77c-1.56,5.42,0.78,11.15,5.68,13.93l4.59,2.61c4.9,2.79,11.02,1.87,14.88-2.24l4.81-5.12
				c3.73,2.01,7.59,4.05,11.55,6.09l-1.34,5.93c-1.24,5.5,1.42,11.08,6.47,13.58l4.74,2.35c5.05,2.5,11.1,1.23,14.72-3.09l3.91-4.67
				c2,0.86,3.52,1.4,4.92,1.9c0.77,0.28,1.5,0.53,2.28,0.83l-1.1,4.89c-1.22,5.42,1.4,10.92,6.38,13.38l4.56,2.26
				c1.71,0.84,3.53,1.25,5.33,1.25c3.46,0,6.84-1.5,9.18-4.3l4.07-4.86c5.67,2.45,10.23,4.37,13.21,5.61
				c6.77,2.82,14.64,0.43,18.71-5.67l6.16-9.24c0.02-0.03,0.03-0.05,0.05-0.08c6.89-10.41,6.1-24.32-1.92-33.89l-50.9-62.59
				l-59.97-102.1c-0.47-0.8-0.99-1.55-1.55-2.27l22.02-45.16L-5585.15-1874.71z M-5783.89-1880.47l184.77-0.15l-81.98,133.59
				l-133.19-38.98L-5783.89-1880.47z M-5919.22-1609.75c0.17-0.29,0.34-0.58,0.52-0.87c0.38-0.64,0.76-1.28,1.13-1.91
				c0.18-0.31,0.36-0.61,0.54-0.91c0.39-0.65,0.78-1.3,1.16-1.93c0.14-0.23,0.28-0.47,0.42-0.7c0.51-0.84,1.01-1.67,1.51-2.48
				c0.12-0.2,0.25-0.4,0.37-0.6c0.37-0.61,0.74-1.22,1.11-1.81c0.17-0.28,0.35-0.56,0.52-0.84c0.32-0.52,0.64-1.03,0.96-1.54
				c0.16-0.26,0.33-0.52,0.49-0.78c0.37-0.59,0.74-1.18,1.1-1.75c0.09-0.14,0.19-0.29,0.28-0.44c0.44-0.69,0.87-1.36,1.29-2.01
				c0.15-0.22,0.29-0.44,0.43-0.66c0.29-0.45,0.58-0.89,0.86-1.31c0.15-0.23,0.31-0.47,0.46-0.7c0.28-0.43,0.56-0.85,0.84-1.26
				c0.13-0.19,0.25-0.38,0.38-0.57c0.39-0.57,0.77-1.13,1.14-1.67c0.08-0.11,0.15-0.21,0.22-0.32c0.3-0.43,0.59-0.85,0.87-1.25
				c0.13-0.18,0.25-0.35,0.38-0.53c0.12-0.18,0.25-0.34,0.37-0.51c10.66,15.02,24.09,41.17,14.14,68.23
				c-0.09-0.07-0.19-0.14-0.28-0.2c-5.5-4.01-10.15-7.49-14.01-10.48c-0.01-0.01-0.02-0.02-0.03-0.02c-1.5-1.16-2.86-2.24-4.12-3.25
				c-0.12-0.09-0.23-0.19-0.35-0.28c-0.59-0.48-1.17-0.95-1.71-1.39c-4.49-3.71-7.88-8.62-9.81-14.21l-2.84-8.24
				C-5920.31-1607.89-5919.76-1608.83-5919.22-1609.75z M-5743.1-1568.5l4.83,8.23l-4.95,0.25c-4.14,0.21-7.32,3.73-7.12,7.86
				c0.2,4.01,3.51,7.13,7.48,7.13c0.12,0,0.25,0,0.38-0.01l12.78-0.64l5.65,9.61l-4.92,0.24c-4.14,0.21-7.32,3.73-7.12,7.86
				c0.2,4.01,3.51,7.13,7.48,7.13c0.12,0,0.25,0,0.38-0.01l12.75-0.63l6.05,10.3l-4.92,0.24c-4.14,0.21-7.32,3.73-7.12,7.86
				c0.2,4.01,3.51,7.13,7.48,7.13c0.12,0,0.25,0,0.38-0.01l12.74-0.63l3.54,6.04c0.19,0.33,0.41,0.64,0.65,0.93l51.3,63.08
				c0.03,0.03,0.06,0.07,0.08,0.1c2.44,2.89,3.47,6.63,3.04,10.23c-19.48-8.58-75.6-34.16-119.5-62.53
				c-3.48-2.25-8.12-1.25-10.37,2.23c-2.25,3.48-1.25,8.12,2.23,10.37c43.98,28.42,99.76,54,120.54,63.19l-1.19,1.79
				c-0.1,0.15-0.3,0.21-0.46,0.14c-3.41-1.42-8.93-3.74-15.84-6.76c-4.38-1.91-9.57-0.68-12.63,2.97l-4.55,5.43l-0.31-0.16
				l1.35-5.97c1.12-4.95-1.41-10.09-6.01-12.21c-2.88-1.33-4.87-2.04-6.63-2.66c-1.9-0.67-3.53-1.26-6.4-2.64
				c-4.48-2.15-9.82-1-13.01,2.8l-4.52,5.4l-0.74-0.36l1.56-6.91c1.09-4.82-1.22-9.76-5.61-12.01c-5.88-3.02-11.58-6.03-16.94-8.94
				c-4.32-2.35-9.69-1.49-13.06,2.09l-5.49,5.84l-0.72-0.41l2.21-7.7c1.36-4.71-0.64-9.77-4.86-12.29
				c-14.69-8.78-27.12-17.19-36.93-25c-17.25-13.73-39.76-30.75-66.88-50.58c-4.05-2.96-9.56-2.76-13.39,0.5l-10.12,8.6l-3.4-2.47
				l5.05-12.22c1.93-4.66,0.41-9.97-3.69-12.92c-5.77-4.15-11.26-8.08-16.34-11.7c-4.04-2.89-9.51-2.65-13.29,0.56l-9.57,8.13
				l-3.4-2.47l4.63-11.22c1.95-4.71,0.39-10.06-3.78-12.99l-2.17-1.52l4.97-7.53c0.1-0.15,0.19-0.3,0.28-0.46l0.57-1.01
				c0.2,0.44,0.42,0.87,0.63,1.31c0.14,0.28,0.27,0.57,0.41,0.85c0.45,0.89,0.93,1.76,1.44,2.61c0,0,0,0,0,0.01
				c0.5,0.85,1.04,1.68,1.6,2.49c0.18,0.26,0.37,0.51,0.55,0.77c0.4,0.55,0.8,1.1,1.22,1.64c0.23,0.29,0.46,0.57,0.69,0.85
				c0.4,0.49,0.82,0.98,1.25,1.46c0.25,0.28,0.49,0.55,0.74,0.82c0.46,0.49,0.93,0.96,1.41,1.43c0.23,0.23,0.46,0.46,0.7,0.69
				c0.69,0.65,1.4,1.28,2.13,1.89c0.03,0.03,0.06,0.06,0.09,0.08c0.41,0.34,0.84,0.69,1.28,1.05c0.05,0.04,0.1,0.08,0.14,0.12
				c6.23,5.06,14.96,11.6,27.27,20.43c0.01,0.01,0.01,0.01,0.02,0.01c10.81,7.76,22.86,16.21,34.71,24.52
				c21,14.72,42.72,29.95,55.49,39.98c3.26,2.56,7.97,1.99,10.53-1.26c2.56-3.26,1.99-7.97-1.26-10.53
				c-13.1-10.29-34.01-24.95-56.15-40.47c-9.98-6.99-20.09-14.08-29.45-20.76c15.85-36.32-3.08-70.68-16.23-88.38
				c8.26-6.63,20.43-13.94,31.2-19.64c0.04,0.04,0.09,0.08,0.13,0.12c0.08,0.09,0.16,0.18,0.24,0.27c0.17,0.19,0.33,0.39,0.49,0.6
				c0.07,0.1,0.15,0.19,0.22,0.29c0.17,0.24,0.32,0.48,0.47,0.73c0.04,0.07,0.09,0.14,0.13,0.21c0.18,0.32,0.34,0.65,0.48,0.99
				c0.03,0.08,0.06,0.17,0.1,0.25c0.1,0.26,0.2,0.53,0.28,0.79c0.03,0.12,0.07,0.24,0.1,0.35c0.07,0.26,0.12,0.51,0.17,0.78
				c0.02,0.11,0.04,0.22,0.06,0.34c0.05,0.37,0.09,0.74,0.1,1.12l0.62,18.45c0.38,11.27,6.21,21.73,15.59,27.97
				c3.84,2.56,8.08,4.31,12.6,5.21l34.31,6.81l32.33,6.41c0.21,0.04,0.41,0.09,0.61,0.16c0.59,0.18,1.16,0.46,1.7,0.82
				c0.04,0.03,0.08,0.04,0.12,0.07c0.73,0.52,1.35,1.19,1.82,1.97l5.9,10.05l-4.91,0.24c-4.14,0.21-7.32,3.72-7.12,7.86
				c0.2,4.01,3.51,7.13,7.49,7.13c0.12,0,0.25,0,0.38-0.01L-5743.1-1568.5z M-5759.03-1610.9l-23.16-4.59l1.72-4.06
				c0.21-0.5,0.44-1,0.67-1.49c0.08-0.17,0.16-0.33,0.25-0.5c0.16-0.32,0.31-0.64,0.47-0.95c0.1-0.2,0.21-0.39,0.31-0.58
				c0.15-0.28,0.3-0.56,0.45-0.83c0.12-0.2,0.24-0.41,0.36-0.61c0.15-0.26,0.31-0.52,0.46-0.77c0.13-0.2,0.25-0.4,0.38-0.6
				c0.16-0.25,0.32-0.49,0.48-0.74c0.13-0.2,0.27-0.4,0.41-0.59c0.17-0.24,0.33-0.48,0.51-0.71c0.14-0.19,0.28-0.38,0.43-0.57
				c0.18-0.23,0.36-0.46,0.54-0.69c0.14-0.18,0.29-0.36,0.44-0.54c0.19-0.23,0.38-0.46,0.58-0.69c0.15-0.17,0.29-0.34,0.44-0.51
				c0.21-0.23,0.42-0.46,0.62-0.69c0.14-0.15,0.29-0.31,0.43-0.46c0.23-0.24,0.46-0.47,0.69-0.71c0.14-0.14,0.27-0.27,0.41-0.4
				c0.26-0.26,0.53-0.51,0.8-0.76c0.11-0.1,0.22-0.21,0.33-0.31c0.34-0.31,0.69-0.61,1.04-0.91c0.04-0.04,0.08-0.07,0.13-0.11
				c1.23-1.03,2.51-1.98,3.84-2.86c0.04-0.03,0.08-0.05,0.12-0.08c0.4-0.26,0.81-0.52,1.22-0.77c0.06-0.04,0.13-0.08,0.19-0.11
				c0.39-0.23,0.78-0.46,1.18-0.68c0.07-0.04,0.15-0.08,0.22-0.12c0.39-0.21,0.78-0.42,1.18-0.62c0.08-0.04,0.15-0.08,0.23-0.11
				c0.4-0.2,0.8-0.4,1.21-0.58c0.07-0.03,0.15-0.07,0.22-0.1c0.42-0.19,0.84-0.37,1.26-0.55c0.06-0.03,0.12-0.05,0.19-0.08
				c0.44-0.18,0.89-0.35,1.33-0.52c0.05-0.02,0.09-0.04,0.14-0.05c0.47-0.17,0.95-0.34,1.43-0.49c0.02-0.01,0.04-0.02,0.06-0.02
				c3.57-1.15,7.32-1.83,11.17-1.98c0.09,0,0.18,0,0.27-0.01c0.33-0.01,0.65-0.02,0.98-0.02L-5759.03-1610.9z M-5737.3-1659.86
				c-24.48-2.01-47.37,11.84-56.97,34.44l-2.95,6.94l-28.33-5.62c-2.58-0.51-5.01-1.52-7.21-2.98c-5.36-3.57-8.7-9.55-8.91-15.99
				l-0.62-18.45c-0.02-0.68-0.08-1.36-0.16-2.04c-0.02-0.17-0.04-0.33-0.06-0.5c-0.09-0.67-0.2-1.34-0.34-1.99
				c-0.01-0.02-0.01-0.04-0.02-0.06c-0.14-0.64-0.31-1.27-0.51-1.9c-0.05-0.15-0.1-0.31-0.15-0.46c-0.21-0.64-0.43-1.27-0.69-1.89
				c-0.01-0.03-0.02-0.05-0.04-0.08c-0.25-0.6-0.53-1.18-0.82-1.75c-0.07-0.14-0.14-0.28-0.21-0.41c-0.32-0.59-0.65-1.17-1.01-1.74
				c-0.02-0.03-0.04-0.06-0.06-0.09c-0.35-0.54-0.72-1.06-1.11-1.56c-0.09-0.12-0.18-0.24-0.27-0.36c-0.42-0.53-0.85-1.04-1.31-1.54
				c-0.01-0.01-0.01-0.02-0.02-0.03l19.9-61.82l12.59,3.82c0.73,0.22,1.46,0.32,2.18,0.32c3.22,0,6.19-2.09,7.17-5.32
				c1.2-3.96-1.04-8.15-5-9.35l-12.35-3.74l2.1-6.54l3.6-11.17l129.65,37.95l-6.94,11.31l-3.83,6.24l-78.84-23.91
				c-3.97-1.21-8.15,1.04-9.35,5c-1.2,3.96,1.04,8.15,5,9.35l75.09,22.77l-26.62,43.38L-5737.3-1659.86z"/>
		</g>
	</g>
	<g>
		<g>
			<path d="M-5816.26-1604.12c-19.94,0-36.16,16.22-36.16,36.16c0,19.94,16.22,36.16,36.16,36.16c19.94,0,36.16-16.22,36.16-36.16
				C-5780.1-1587.9-5796.32-1604.12-5816.26-1604.12z M-5816.26-1546.8c-11.67,0-21.16-9.49-21.16-21.16
				c0-11.67,9.49-21.16,21.16-21.16c11.67,0,21.17,9.49,21.17,21.16C-5795.1-1556.29-5804.59-1546.8-5816.26-1546.8z"/>
		</g>
	</g>
	<g>
		<g>
			<path d="M-5439.66-1591.3c-0.01-0.42-0.03-0.84-0.04-1.26c-0.02-0.53-0.04-1.06-0.06-1.59c-0.03-0.57-0.06-1.14-0.09-1.71
				c-0.02-0.34-0.04-0.67-0.06-1.01c-0.05-0.71-0.1-1.42-0.16-2.13c-0.01-0.11-0.02-0.23-0.03-0.34
				c-1.19-13.56-4.56-26.51-9.75-38.48c-0.07-0.17-0.15-0.33-0.22-0.49c-0.26-0.6-0.52-1.19-0.8-1.79c-0.3-0.66-0.61-1.32-0.92-1.97
				c-0.06-0.12-0.11-0.24-0.17-0.36c-4.32-8.99-9.72-17.48-16.13-25.25c-0.21-0.26-0.44-0.5-0.69-0.72
				c-13.4-15.98-30.73-28.56-50.48-36.25c-0.11-0.05-0.22-0.11-0.33-0.16c-8.34-3.21-16.94-5.49-25.72-6.84
				c-0.08-0.01-0.17-0.03-0.25-0.04c-0.9-0.14-1.8-0.26-2.7-0.38c-0.18-0.02-0.36-0.05-0.54-0.07c-0.81-0.1-1.62-0.19-2.44-0.28
				c-0.25-0.03-0.49-0.05-0.74-0.08c-0.75-0.07-1.5-0.14-2.26-0.2c-0.29-0.02-0.58-0.05-0.88-0.07c-0.72-0.05-1.44-0.1-2.16-0.14
				c-0.31-0.02-0.63-0.04-0.94-0.05c-0.74-0.04-1.48-0.06-2.22-0.08c-0.29-0.01-0.58-0.02-0.87-0.03c-1.02-0.03-2.05-0.04-3.08-0.04
				c-1.03,0-2.05,0.01-3.07,0.04c-0.29,0.01-0.58,0.02-0.87,0.03c-0.74,0.02-1.48,0.05-2.22,0.08c-0.31,0.02-0.62,0.04-0.94,0.05
				c-0.72,0.04-1.45,0.08-2.17,0.14c-0.29,0.02-0.58,0.05-0.87,0.07c-0.76,0.06-1.51,0.13-2.27,0.2c-0.24,0.02-0.48,0.05-0.73,0.07
				c-0.82,0.08-1.64,0.18-2.45,0.28c-0.17,0.02-0.35,0.04-0.52,0.07c-0.91,0.12-1.82,0.24-2.73,0.38c-0.08,0.01-0.15,0.02-0.23,0.03
				c-8.78,1.35-17.39,3.63-25.73,6.84c-0.12,0.05-0.22,0.11-0.33,0.16c-19.76,7.69-37.08,20.28-50.49,36.26
				c-0.24,0.22-0.47,0.46-0.68,0.72c-6.4,7.77-11.8,16.25-16.12,25.24c-0.07,0.15-0.14,0.29-0.21,0.44c-0.3,0.63-0.6,1.26-0.88,1.89
				c-0.28,0.61-0.55,1.22-0.82,1.83c-0.06,0.15-0.13,0.3-0.2,0.45c-5.2,11.98-8.57,24.93-9.76,38.5c-0.01,0.11-0.02,0.23-0.03,0.34
				c-0.06,0.71-0.12,1.42-0.16,2.13c-0.02,0.33-0.04,0.67-0.06,1c-0.03,0.57-0.07,1.14-0.09,1.72c-0.02,0.53-0.04,1.06-0.06,1.59
				c-0.01,0.42-0.03,0.84-0.04,1.27c-0.02,0.98-0.04,1.96-0.04,2.95c0,0.37,0.01,0.73,0.01,1.1l0.01,0.52c0,0.01,0,0.01,0,0.02
				c0.31,23.71,7.26,45.85,19.08,64.63c0.12,0.24,0.24,0.47,0.38,0.7c16.31,25.59,41.26,44.35,70.27,52.81
				c0.07,0.02,0.15,0.03,0.22,0.05c11.05,3.21,22.72,4.94,34.79,4.94c12.07,0,23.75-1.73,34.79-4.94c0.07-0.02,0.15-0.03,0.22-0.05
				c29.01-8.47,53.96-27.22,70.27-52.81c0.14-0.22,0.26-0.46,0.38-0.7c11.82-18.78,18.77-40.91,19.08-64.63c0,0,0,0,0,0l0.01-0.46
				c0.01-0.39,0.01-0.78,0.01-1.18C-5439.63-1589.34-5439.64-1590.32-5439.66-1591.3z M-5470.97-1645.92
				c2.22,3.59,4.24,7.33,6.05,11.18c0.24,0.52,0.49,1.04,0.72,1.57c0.05,0.1,0.09,0.21,0.14,0.31c4.29,9.68,7.18,19.97,8.54,30.52
				l-23.07-17.03L-5470.97-1645.92z M-5482.22-1661.05l-11.07,38.54l-23.62,9.2l-39.98-27.78v-23.58l35.52-24.67
				C-5506.3-1682.89-5492.95-1673.16-5482.22-1661.05z M-5527.17-1602.18l-14.13,41.58h-46.18l-14.13-41.58l37.22-25.86
				L-5527.17-1602.18z M-5581.48-1696.79c0.18-0.03,0.35-0.06,0.52-0.08c0.67-0.1,1.34-0.19,2.01-0.28
				c0.33-0.04,0.65-0.09,0.98-0.13c0.59-0.07,1.19-0.14,1.79-0.2c0.42-0.05,0.84-0.09,1.26-0.13c0.54-0.05,1.07-0.1,1.61-0.14
				c0.5-0.04,1-0.07,1.51-0.11c0.47-0.03,0.95-0.06,1.42-0.09c0.61-0.03,1.23-0.06,1.85-0.08c0.38-0.01,0.75-0.03,1.13-0.04
				c1-0.03,2.01-0.04,3.01-0.04c1.01,0,2.01,0.02,3.01,0.04c0.38,0.01,0.75,0.03,1.13,0.04c0.62,0.02,1.23,0.05,1.85,0.08
				c0.48,0.03,0.95,0.06,1.42,0.09c0.5,0.03,1.01,0.07,1.51,0.11c0.54,0.04,1.07,0.09,1.61,0.14c0.42,0.04,0.84,0.08,1.26,0.13
				c0.6,0.06,1.19,0.13,1.78,0.2c0.33,0.04,0.66,0.08,0.99,0.13c0.67,0.09,1.34,0.18,2.01,0.28c0.18,0.03,0.35,0.06,0.53,0.08
				c2.73,0.43,5.42,0.96,8.08,1.58l-25.17,17.49l-25.17-17.49C-5586.9-1695.83-5584.21-1696.36-5581.48-1696.79z M-5607.4-1689.34
				l35.52,24.67v23.58l-39.94,27.75l-23.67-9.22l-11.05-38.49C-5635.83-1673.16-5622.48-1682.89-5607.4-1689.34z M-5664.68-1632.94
				c0.03-0.06,0.06-0.13,0.08-0.19c0.26-0.58,0.53-1.15,0.79-1.72c1.79-3.81,3.79-7.5,5.99-11.06l7.62,26.55l-23.07,17.03
				C-5671.89-1612.91-5668.99-1623.23-5664.68-1632.94z M-5659.02-1532.8c-8.78-14.89-14.14-32.02-15-50.31l34-25.11l23.65,9.21
				l15.09,44.41l-16.36,22.99L-5659.02-1532.8z M-5648.14-1517.48l29.03,0.84l9.64,28.36
				C-5624.45-1495.05-5637.63-1505.1-5648.14-1517.48z M-5537.29-1481.98c-8.67,2.21-17.75,3.39-27.1,3.39
				c-9.35,0-18.43-1.18-27.1-3.39l-13.92-40.96l16.12-22.66h49.79l16.13,22.67L-5537.29-1481.98z M-5519.31-1488.28l9.64-28.36
				l29.02-0.84C-5491.14-1505.1-5504.33-1495.05-5519.31-1488.28z M-5469.76-1532.8l-41.39,1.2l-16.35-22.99l15.08-44.37l23.71-9.23
				l33.96,25.08C-5455.62-1564.83-5460.98-1547.7-5469.76-1532.8z"/>
		</g>
	</g>
</g>
<g>
	<g id="_22-_Smartphone_00000029760633646427527850000000834720865464599697_">
		<path class="st0" d="M415.47,325.57v86.38h-66.44L415.47,325.57z"/>
		<path class="st1" d="M340.12,304.18l15.55-18.47l59.8,39.87l-66.44,86.38h-99.66l11.16-13.29L340.12,304.18z M375.6,325.57
			c0-3.67-2.97-6.64-6.64-6.64s-6.64,2.97-6.64,6.64s2.97,6.64,6.64,6.64S375.6,329.24,375.6,325.57z"/>
		<path class="st2" d="M322.45,292.35l17.67,11.83l-79.6,94.48h-34.42c-32.36,0-63.92,3.06-90.16-16.01l-32.76-23.85h119.6
			c14.68,0,26.58-11.9,26.58-26.58v-59.8c0-26.58,19.93-59.8,19.93-59.8s-19.93-53.15-19.93-79.73v-16.81
			c0.72-9.69,9.1-17.01,18.8-16.41c8.04-0.3,15.37,4.57,18.21,12.09l23.32,69.3l12.76,58.14V292.35z"/>
		<path class="st3" d="M249.36,132.89v199.33c0,14.68-11.9,26.58-26.58,26.58H76.61c-6.46,0-12.7-2.36-17.54-6.64h2.99
			c11.71,0,21.21-9.5,21.2-21.21c0-7.45-3.91-14.36-10.31-18.19l-22.92-13.75v-1.06c2.07,0.72,4.25,1.08,6.44,1.06h5.58
			c11.71,0,21.21-9.5,21.2-21.21c0-7.45-3.91-14.36-10.31-18.19l-22.92-13.75v-1.06c2.07,0.72,4.25,1.08,6.44,1.06h5.58
			c11.68-0.07,21.12-9.52,21.2-21.2c-0.01-7.45-3.92-14.36-10.3-18.21l-22.92-13.75V26.58C50.03,11.9,61.93,0,76.61,0h26.58
			l16.94,19.93h59.13L196.21,0h26.58c14.68,0,26.58,11.9,26.58,26.58V132.89z M172.95,215.54c12.74-0.54,22.89-10.84,23.26-23.59
			c0-17.74-14.22-26.31-29.04-41.33c-11.63-11.83-17.47-17.74-17.47-17.74s-5.78,5.91-17.41,17.74
			c-14.88,15.02-29.1,23.59-29.1,41.33c0.36,12.75,10.52,23.05,23.26,23.59c6.67-0.38,12.8-3.81,16.61-9.3v19.67l-6.64,13.29h26.58
			l-6.64-13.29v-19.67C160.15,211.73,166.28,215.16,172.95,215.54z"/>
		<g>
			<path class="st1" d="M196.21,0l-16.94,19.93h-59.13L103.19,0H196.21z"/>
			<path class="st1" d="M156.34,206.24c-2.39-2.86-4.52-5.85-6.64-8.37c-2.13,2.52-4.25,5.51-6.64,8.37
				c-3.81,5.49-9.94,8.92-16.61,9.3c-12.74-0.54-22.89-10.84-23.26-23.59c0-17.74,14.22-26.31,29.1-41.33
				c11.63-11.83,17.41-17.74,17.41-17.74s5.85,5.91,17.47,17.74c14.82,15.02,29.04,23.59,29.04,41.33
				c-0.36,12.75-10.52,23.05-23.26,23.59C166.28,215.16,160.15,211.73,156.34,206.24z"/>
			<path class="st1" d="M156.34,225.91l6.64,13.29h-26.58l6.64-13.29v-19.67c2.39-2.86,4.52-5.85,6.64-8.37
				c2.13,2.52,4.25,5.51,6.64,8.37V225.91z"/>
		</g>
		<path class="st4" d="M50.03,244.78c-1.89-0.55-3.69-1.41-5.32-2.52l-19.87-13.22l-1.2-0.8c-13.9-9.32-17.62-28.14-8.31-42.04
			c5.61-8.38,15.03-13.42,25.12-13.44h9.57v19.93l22.92,13.75c6.38,3.85,10.29,10.75,10.3,18.21c-0.07,11.68-9.52,21.12-21.2,21.2
			h-5.58C54.28,245.86,52.1,245.5,50.03,244.78z"/>
		<path class="st5" d="M50.03,297.93c-1.89-0.55-3.69-1.41-5.32-2.52l-19.87-13.22l-1.2-0.8c-13.91-9.26-17.68-28.04-8.42-41.95
			c2.18-3.27,4.97-6.08,8.22-8.29l1.4-2.13l19.87,13.22c1.63,1.12,3.42,1.97,5.32,2.52v1.06l22.92,13.75
			c10.05,6.02,13.31,19.05,7.29,29.09c-3.83,6.39-10.73,10.3-18.19,10.31h-5.58C54.28,299.01,52.1,298.65,50.03,297.93z"/>
		<path class="st6" d="M83.25,330.95c-0.01,11.7-9.49,21.19-21.2,21.2h-5.58c-4.19,0-8.28-1.25-11.76-3.59l-21.06-14.02
			c-13.91-9.26-17.68-28.04-8.42-41.95c2.18-3.27,4.97-6.08,8.22-8.29l1.4-2.13l19.87,13.22c1.63,1.12,3.42,1.97,5.32,2.52v1.06
			l22.92,13.75C79.33,316.6,83.24,323.5,83.25,330.95z"/>
		<path class="st5" d="M50.03,119.6v53.15l-32.29-13.82c-11.92-5.11-17.43-18.91-12.32-30.83c3.69-8.6,12.13-14.19,21.49-14.22
			c2.18,0.02,4.35,0.33,6.44,0.93L50.03,119.6z"/>
		<circle class="st0" cx="368.96" cy="325.57" r="6.64"/>
		<path class="st6" d="M249.36,132.89c0,26.58,19.93,79.73,19.93,79.73s-19.93,33.22-19.93,59.8V132.89z"/>
		<path class="st7" d="M179.26,13.29h-59.13L108.83,0h-5.65l16.94,19.93h59.13L196.21,0h-5.65L179.26,13.29z"/>
		<path class="st5" d="M72.95,206.44l-22.92-13.75v-19.93h-9.26c-9.56-0.01-17.31,7.74-17.32,17.3c0,5.79,2.89,11.2,7.71,14.42
			l31.43,20.96c6.09,4.05,14.32,2.39,18.37-3.7c0.59-0.89,1.08-1.86,1.44-2.87C80.93,213.67,77.56,209.24,72.95,206.44z"/>
		<path class="st8" d="M322.45,291.75l-25.41,18.48c-5.94,4.32-14.25,3-18.56-2.93c-1.65-2.27-2.54-5.01-2.54-7.82v-86.85
			c0,0-33.14-92.8-6.73-112.88c-0.35,0-0.66-0.07-1.04-0.07c-9.7-0.6-18.08,6.72-18.8,16.41v16.81c0,26.58,19.93,79.73,19.93,79.73
			s-19.93,33.22-19.93,59.8v59.8c0,14.68-11.9,26.58-26.58,26.58h-119.6l32.76,23.85c26.25,19.07,57.81,16.01,90.16,16.01h34.42
			l79.6-94.48l-17.67-11.83V291.75z"/>
		<path class="st9" d="M402.18,372.08l13.29-17.72v-28.79l-66.44,86.38h66.44v-13.29c-9.17,0-16.61-7.44-16.61-16.61
			C398.86,378.45,400.02,374.96,402.18,372.08z"/>
		<path class="st7" d="M343.05,386.84c-20.88-4.15-35.85-22.57-35.65-43.85l-46.88,55.67l-11.16,13.29h99.66l22.12-28.76
			C362.43,387.45,352.56,388.73,343.05,386.84z"/>
		<path class="st10" d="M160.09,239.2h-23.68l6.64-13.29v-4.14c-2.51-2.87-4.96-5.84-7.36-8.9c-2.77,1.74-5.98,2.66-9.26,2.66
			c-12.74-0.54-22.89-10.83-23.26-23.57c0.04-6.91,2.46-13.6,6.85-18.94C83.12,119.68,69.38,60.67,69.96,0.94
			c-11.71,3-19.91,13.55-19.93,25.64v166.11l22.92,13.75c6.38,3.85,10.29,10.75,10.3,18.21c-0.07,11.68-9.52,21.12-21.2,21.2h-5.58
			c-2.19,0.02-4.37-0.34-6.44-1.06v1.06l22.92,13.75c10.05,6.02,13.31,19.05,7.29,29.09c-3.83,6.39-10.73,10.3-18.19,10.31h-5.58
			c-2.19,0.02-4.37-0.34-6.44-1.06v1.06l22.92,13.75c10.05,6.02,13.31,19.05,7.29,29.09c-3.83,6.39-10.73,10.3-18.19,10.31h-2.99
			c4.84,4.28,11.08,6.65,17.54,6.64h146.18c14.68,0,26.58-11.9,26.58-26.58v-53.41C215.91,276.37,184.34,262.37,160.09,239.2z"/>
		<path class="st7" d="M103.19,191.95c0.36,12.75,10.52,23.05,23.26,23.59c3.27,0,6.48-0.92,9.26-2.66
			c-9.73-12.49-18.32-25.83-25.66-39.87C105.65,178.36,103.23,185.04,103.19,191.95L103.19,191.95z"/>
		<path class="st7" d="M143.05,221.77v4.14l-6.64,13.29h23.68C154.07,233.73,148.38,227.91,143.05,221.77z"/>
		<path class="st1" d="M108.83,6.64H76.61c-11,0.03-19.9,8.94-19.93,19.93v170.09l-6.64-3.99V26.58C50.03,11.9,61.93,0,76.61,0
			h26.58L108.83,6.64z"/>
		<path class="st1" d="M249.36,26.58v305.64c0,14.68-11.9,26.58-26.58,26.58H76.61c-2.9,0.03-5.78-0.47-8.5-1.46
			c-0.62-0.16-1.22-0.39-1.79-0.66c-2.65-1.09-5.1-2.62-7.24-4.52h2.99c2.55,0.01,5.07-0.46,7.44-1.4c2.25,0.94,4.67,1.41,7.11,1.4
			h146.18c11-0.03,19.9-8.94,19.93-19.93V26.58c-0.03-11-8.94-19.9-19.93-19.93h-32.22L196.21,0h26.58
			C237.46,0,249.36,11.9,249.36,26.58z"/>
	</g>
	<g>
		<g>
			<path class="st11" d="M429.79,490.64H218.96V333.25h210.84c43.46,0,78.69,35.23,78.69,78.69
				C508.49,455.41,473.26,490.64,429.79,490.64z"/>
			<path class="st12" d="M429.79,333.25h-25.67c43.46,0,78.69,35.23,78.69,78.69s-35.23,78.69-78.69,78.69h25.67
				c43.46,0,78.69-35.23,78.69-78.69S473.26,333.25,429.79,333.25z"/>
			<g>
				<path class="st13" d="M335.41,433.91c-0.01,0-0.02,0-0.04,0c-4.67,0.03-9.68,0.04-13.46,0.05v-50.44c0-3.54-2.87-6.42-6.42-6.42
					c-3.54,0-6.42,2.87-6.42,6.42v56.81c0,3.13,2.25,5.8,5.33,6.32c0.46,0.08,14.53,0.13,21.03,0.09c3.54-0.02,6.4-2.91,6.38-6.45
					C341.8,436.76,338.94,433.91,335.41,433.91L335.41,433.91z"/>
				<path class="st13" d="M357.61,377.1c-3.54,0-6.42,2.87-6.42,6.42v56.86c0,3.54,2.87,6.42,6.42,6.42c3.54,0,6.42-2.87,6.42-6.42
					v-56.86C364.03,379.97,361.16,377.1,357.61,377.1L357.61,377.1z"/>
				<path class="st13" d="M466.19,433.7h-17.32v-15.34h15.57c3.54,0,6.42-2.87,6.42-6.42s-2.87-6.42-6.42-6.42h-15.57v-15.34h17.32
					c3.54,0,6.42-2.87,6.42-6.42c0-3.54-2.87-6.42-6.42-6.42h-23.74c-3.54,0-6.42,2.87-6.42,6.42v56.34c0,3.54,2.87,6.42,6.42,6.42
					h23.74c3.54,0,6.42-2.87,6.42-6.42S469.73,433.7,466.19,433.7L466.19,433.7z"/>
				<path class="st13" d="M422.27,377.53c-3.36-1.12-7,0.7-8.11,4.07l-13.8,41.53l-14.48-41.72c-1.16-3.35-4.82-5.12-8.17-3.96
					c-3.35,1.16-5.12,4.82-3.96,8.17l19.46,56.05c1.09,3.07,4,5.12,7.25,5.12c0.02,0,0.04,0,0.05,0c3.27-0.02,6.18-2.12,7.25-5.26
					l18.57-55.89C427.45,382.28,425.63,378.65,422.27,377.53L422.27,377.53z"/>
			</g>
		</g>
		<g>
			<circle class="st11" cx="183.3" cy="411.95" r="100.05"/>
			<path class="st12" d="M183.3,311.9c-4.35,0-8.63,0.28-12.83,0.82c49.13,6.32,87.22,48.41,87.22,99.23s-38.09,92.91-87.22,99.23
				c4.2,0.54,8.49,0.82,12.83,0.82c55.17,0,100.05-44.88,100.05-100.05C283.36,356.78,238.47,311.9,183.3,311.9z"/>
			
				<ellipse transform="matrix(0.1591 -0.9873 0.9873 0.1591 -252.5586 527.3256)" class="st13" cx="183.27" cy="411.92" rx="74.37" ry="74.38"/>
			<path class="st11" d="M162.6,441.33v-58.76c0-5.95,6.77-9.37,11.56-5.84l39.82,29.38c3.93,2.9,3.93,8.77,0,11.67l-39.82,29.38
				C169.37,450.7,162.6,447.28,162.6,441.33L162.6,441.33z"/>
			<path class="st12" d="M213.98,406.11l-39.82-29.38c-4.79-3.53-11.56-0.11-11.56,5.84v4.57c16.7,12.32,16.7,37.29,0,49.62v4.57
				c0,5.95,6.77,9.37,11.56,5.84l39.82-29.38C217.91,414.89,217.91,409.01,213.98,406.11L213.98,406.11z"/>
		</g>
	</g>
</g>
</svg>
