<?xml version="1.0" encoding="utf-8"?>
<!-- Generator: Adobe Illustrator 27.5.0, SVG Export Plug-In . SVG Version: 6.00 Build 0)  -->
<svg version="1.1" id="Layer_1" xmlns="http://www.w3.org/2000/svg" xmlns:xlink="http://www.w3.org/1999/xlink" x="0px" y="0px"
	 viewBox="0 0 512 512" style="enable-background:new 0 0 512 512;" xml:space="preserve">
<style type="text/css">
	.st0{fill:#FFC084;}
	.st1{fill:#F7B076;}
	.st2{fill:#E9F6FF;}
	.st3{fill:#CCDFED;}
	.st4{fill:#418BE5;}
	.st5{fill:#5FA0FF;}
	.st6{fill:#F3A656;}
	.st7{fill:#45748C;}
	.st8{fill:#B8D1E0;}
	.st9{fill:#A2BECC;}
	.st10{fill:#E5D8C6;}
	.st11{fill:#2C5871;}
	.st12{fill:#FF4F6B;}
	.st13{fill:#FB2B3A;}
	.st14{fill:#FFFFFF;}
</style>
<g>
	<g>
		<g>
			<path d="M-5585.15-1874.71c2.6-4.23,2.7-9.56,0.28-13.89c-2.43-4.33-7.02-7.02-11.98-7.02c0,0-0.01,0-0.01,0l-187.97,0.15
				c-5.98,0.01-11.23,3.83-13.06,9.52l-65.3,202.91c-0.59,0.19-1.17,0.41-1.74,0.7c-9.22,4.78-30.55,16.48-42,27.84
				c-0.01,0.01-0.03,0.03-0.04,0.04c-0.15,0.15-0.29,0.29-0.43,0.43c-0.2,0.2-0.39,0.4-0.58,0.6c-0.24,0.25-0.46,0.49-0.69,0.73
				c-0.1,0.11-0.21,0.22-0.31,0.34c-0.3,0.33-0.59,0.66-0.86,0.99c-6.98,8.31-17.48,25.62-25.26,39c-0.2,0.27-0.4,0.55-0.56,0.85
				l-8.49,15.12l-5.03,7.62c-4.33,6.56-2.76,15.2,3.53,19.82l-3.84,9.29c-2.38,5.74-0.52,12.31,4.5,15.97l5.42,3.94
				c5.03,3.66,11.84,3.4,16.58-0.62l8.04-6.83c3.49,2.49,7.16,5.12,10.96,7.85l-4.26,10.32c-2.38,5.74-0.52,12.31,4.5,15.96
				l5.42,3.95c5.02,3.66,11.84,3.4,16.57-0.62l8.56-7.28c25.77,18.88,47.2,35.1,63.73,48.26c9.71,7.72,21.75,15.95,35.82,24.48
				l-1.95,6.77c-1.56,5.42,0.78,11.15,5.68,13.93l4.59,2.61c4.9,2.79,11.02,1.87,14.88-2.24l4.81-5.12
				c3.73,2.01,7.59,4.05,11.55,6.09l-1.34,5.93c-1.24,5.5,1.42,11.08,6.47,13.58l4.74,2.35c5.05,2.5,11.1,1.23,14.72-3.09l3.91-4.67
				c2,0.86,3.52,1.4,4.92,1.9c0.77,0.28,1.5,0.53,2.28,0.83l-1.1,4.89c-1.22,5.42,1.4,10.92,6.38,13.38l4.56,2.26
				c1.71,0.84,3.53,1.25,5.33,1.25c3.46,0,6.84-1.5,9.18-4.3l4.07-4.86c5.67,2.45,10.23,4.37,13.21,5.61
				c6.77,2.82,14.64,0.43,18.71-5.67l6.16-9.24c0.02-0.03,0.03-0.05,0.05-0.08c6.89-10.41,6.1-24.32-1.92-33.89l-50.9-62.59
				l-59.97-102.1c-0.47-0.8-0.99-1.55-1.55-2.27l22.02-45.16L-5585.15-1874.71z M-5783.89-1880.47l184.77-0.15l-81.98,133.59
				l-133.19-38.98L-5783.89-1880.47z M-5919.22-1609.75c0.17-0.29,0.34-0.58,0.52-0.87c0.38-0.64,0.76-1.28,1.13-1.91
				c0.18-0.31,0.36-0.61,0.54-0.91c0.39-0.65,0.78-1.3,1.16-1.93c0.14-0.23,0.28-0.47,0.42-0.7c0.51-0.84,1.01-1.67,1.51-2.48
				c0.12-0.2,0.25-0.4,0.37-0.6c0.37-0.61,0.74-1.22,1.11-1.81c0.17-0.28,0.35-0.56,0.52-0.84c0.32-0.52,0.64-1.03,0.96-1.54
				c0.16-0.26,0.33-0.52,0.49-0.78c0.37-0.59,0.74-1.18,1.1-1.75c0.09-0.14,0.19-0.29,0.28-0.44c0.44-0.69,0.87-1.36,1.29-2.01
				c0.15-0.22,0.29-0.44,0.43-0.66c0.29-0.45,0.58-0.89,0.86-1.31c0.15-0.23,0.31-0.47,0.46-0.7c0.28-0.43,0.56-0.85,0.84-1.26
				c0.13-0.19,0.25-0.38,0.38-0.57c0.39-0.57,0.77-1.13,1.14-1.67c0.08-0.11,0.15-0.21,0.22-0.32c0.3-0.43,0.59-0.85,0.87-1.25
				c0.13-0.18,0.25-0.35,0.38-0.53c0.12-0.18,0.25-0.34,0.37-0.51c10.66,15.02,24.09,41.17,14.14,68.23
				c-0.09-0.07-0.19-0.14-0.28-0.2c-5.5-4.01-10.15-7.49-14.01-10.48c-0.01-0.01-0.02-0.02-0.03-0.02c-1.5-1.16-2.86-2.24-4.12-3.25
				c-0.12-0.09-0.23-0.19-0.35-0.28c-0.59-0.48-1.17-0.95-1.71-1.39c-4.49-3.71-7.88-8.62-9.81-14.21l-2.84-8.24
				C-5920.31-1607.89-5919.76-1608.83-5919.22-1609.75z M-5743.1-1568.5l4.83,8.23l-4.95,0.25c-4.14,0.21-7.32,3.73-7.12,7.86
				c0.2,4.01,3.51,7.13,7.48,7.13c0.12,0,0.25,0,0.38-0.01l12.78-0.64l5.65,9.61l-4.92,0.24c-4.14,0.21-7.32,3.73-7.12,7.86
				c0.2,4.01,3.51,7.13,7.48,7.13c0.12,0,0.25,0,0.38-0.01l12.75-0.63l6.05,10.3l-4.92,0.24c-4.14,0.21-7.32,3.73-7.12,7.86
				c0.2,4.01,3.51,7.13,7.48,7.13c0.12,0,0.25,0,0.38-0.01l12.74-0.63l3.54,6.04c0.19,0.33,0.41,0.64,0.65,0.93l51.3,63.08
				c0.03,0.03,0.06,0.07,0.08,0.1c2.44,2.89,3.47,6.63,3.04,10.23c-19.48-8.58-75.6-34.16-119.5-62.53
				c-3.48-2.25-8.12-1.25-10.37,2.23c-2.25,3.48-1.25,8.12,2.23,10.37c43.98,28.42,99.76,54,120.54,63.19l-1.19,1.79
				c-0.1,0.15-0.3,0.21-0.46,0.14c-3.41-1.42-8.93-3.74-15.84-6.76c-4.38-1.91-9.57-0.68-12.63,2.97l-4.55,5.43l-0.31-0.16
				l1.35-5.97c1.12-4.95-1.41-10.09-6.01-12.21c-2.88-1.33-4.87-2.04-6.63-2.66c-1.9-0.67-3.53-1.26-6.4-2.64
				c-4.48-2.15-9.82-1-13.01,2.8l-4.52,5.4l-0.74-0.36l1.56-6.91c1.09-4.82-1.22-9.76-5.61-12.01c-5.88-3.02-11.58-6.03-16.94-8.94
				c-4.32-2.35-9.69-1.49-13.06,2.09l-5.49,5.84l-0.72-0.41l2.21-7.7c1.36-4.71-0.64-9.77-4.86-12.29
				c-14.69-8.78-27.12-17.19-36.93-25c-17.25-13.73-39.76-30.75-66.88-50.58c-4.05-2.96-9.56-2.76-13.39,0.5l-10.12,8.6l-3.4-2.47
				l5.05-12.22c1.93-4.66,0.41-9.97-3.69-12.92c-5.77-4.15-11.26-8.08-16.34-11.7c-4.04-2.89-9.51-2.65-13.29,0.56l-9.57,8.13
				l-3.4-2.47l4.63-11.22c1.95-4.71,0.39-10.06-3.78-12.99l-2.17-1.52l4.97-7.53c0.1-0.15,0.19-0.3,0.28-0.46l0.57-1.01
				c0.2,0.44,0.42,0.87,0.63,1.31c0.14,0.28,0.27,0.57,0.41,0.85c0.45,0.89,0.93,1.76,1.44,2.61c0,0,0,0,0,0.01
				c0.5,0.85,1.04,1.68,1.6,2.49c0.18,0.26,0.37,0.51,0.55,0.77c0.4,0.55,0.8,1.1,1.22,1.64c0.23,0.29,0.46,0.57,0.69,0.85
				c0.4,0.49,0.82,0.98,1.25,1.46c0.25,0.28,0.49,0.55,0.74,0.82c0.46,0.49,0.93,0.96,1.41,1.43c0.23,0.23,0.46,0.46,0.7,0.69
				c0.69,0.65,1.4,1.28,2.13,1.89c0.03,0.03,0.06,0.06,0.09,0.08c0.41,0.34,0.84,0.69,1.28,1.05c0.05,0.04,0.1,0.08,0.14,0.12
				c6.23,5.06,14.96,11.6,27.27,20.43c0.01,0.01,0.01,0.01,0.02,0.01c10.81,7.76,22.86,16.21,34.71,24.52
				c21,14.72,42.72,29.95,55.49,39.98c3.26,2.56,7.97,1.99,10.53-1.26c2.56-3.26,1.99-7.97-1.26-10.53
				c-13.1-10.29-34.01-24.95-56.15-40.47c-9.98-6.99-20.09-14.08-29.45-20.76c15.85-36.32-3.08-70.68-16.23-88.38
				c8.26-6.63,20.43-13.94,31.2-19.64c0.04,0.04,0.09,0.08,0.13,0.12c0.08,0.09,0.16,0.18,0.24,0.27c0.17,0.19,0.33,0.39,0.49,0.6
				c0.07,0.1,0.15,0.19,0.22,0.29c0.17,0.24,0.32,0.48,0.47,0.73c0.04,0.07,0.09,0.14,0.13,0.21c0.18,0.32,0.34,0.65,0.48,0.99
				c0.03,0.08,0.06,0.17,0.1,0.25c0.1,0.26,0.2,0.53,0.28,0.79c0.03,0.12,0.07,0.24,0.1,0.35c0.07,0.26,0.12,0.51,0.17,0.78
				c0.02,0.11,0.04,0.22,0.06,0.34c0.05,0.37,0.09,0.74,0.1,1.12l0.62,18.45c0.38,11.27,6.21,21.73,15.59,27.97
				c3.84,2.56,8.08,4.31,12.6,5.21l34.31,6.81l32.33,6.41c0.21,0.04,0.41,0.09,0.61,0.16c0.59,0.18,1.16,0.46,1.7,0.82
				c0.04,0.03,0.08,0.04,0.12,0.07c0.73,0.52,1.35,1.19,1.82,1.97l5.9,10.05l-4.91,0.24c-4.14,0.21-7.32,3.72-7.12,7.86
				c0.2,4.01,3.51,7.13,7.49,7.13c0.12,0,0.25,0,0.38-0.01L-5743.1-1568.5z M-5759.03-1610.9l-23.16-4.59l1.72-4.06
				c0.21-0.5,0.44-1,0.67-1.49c0.08-0.17,0.16-0.33,0.25-0.5c0.16-0.32,0.31-0.64,0.47-0.95c0.1-0.2,0.21-0.39,0.31-0.58
				c0.15-0.28,0.3-0.56,0.45-0.83c0.12-0.2,0.24-0.41,0.36-0.61c0.15-0.26,0.31-0.52,0.46-0.77c0.13-0.2,0.25-0.4,0.38-0.6
				c0.16-0.25,0.32-0.49,0.48-0.74c0.13-0.2,0.27-0.4,0.41-0.59c0.17-0.24,0.33-0.48,0.51-0.71c0.14-0.19,0.28-0.38,0.43-0.57
				c0.18-0.23,0.36-0.46,0.54-0.69c0.14-0.18,0.29-0.36,0.44-0.54c0.19-0.23,0.38-0.46,0.58-0.69c0.15-0.17,0.29-0.34,0.44-0.51
				c0.21-0.23,0.42-0.46,0.62-0.69c0.14-0.15,0.29-0.31,0.43-0.46c0.23-0.24,0.46-0.47,0.69-0.71c0.14-0.14,0.27-0.27,0.41-0.4
				c0.26-0.26,0.53-0.51,0.8-0.76c0.11-0.1,0.22-0.21,0.33-0.31c0.34-0.31,0.69-0.61,1.04-0.91c0.04-0.04,0.08-0.07,0.13-0.11
				c1.23-1.03,2.51-1.98,3.84-2.86c0.04-0.03,0.08-0.05,0.12-0.08c0.4-0.26,0.81-0.52,1.22-0.77c0.06-0.04,0.13-0.08,0.19-0.11
				c0.39-0.23,0.78-0.46,1.18-0.68c0.07-0.04,0.15-0.08,0.22-0.12c0.39-0.21,0.78-0.42,1.18-0.62c0.08-0.04,0.15-0.08,0.23-0.11
				c0.4-0.2,0.8-0.4,1.21-0.58c0.07-0.03,0.15-0.07,0.22-0.1c0.42-0.19,0.84-0.37,1.26-0.55c0.06-0.03,0.12-0.05,0.19-0.08
				c0.44-0.18,0.89-0.35,1.33-0.52c0.05-0.02,0.09-0.04,0.14-0.05c0.47-0.17,0.95-0.34,1.43-0.49c0.02-0.01,0.04-0.02,0.06-0.02
				c3.57-1.15,7.32-1.83,11.17-1.98c0.09,0,0.18,0,0.27-0.01c0.33-0.01,0.65-0.02,0.98-0.02L-5759.03-1610.9z M-5737.3-1659.86
				c-24.48-2.01-47.37,11.84-56.97,34.44l-2.95,6.94l-28.33-5.62c-2.58-0.51-5.01-1.52-7.21-2.98c-5.36-3.57-8.7-9.55-8.91-15.99
				l-0.62-18.45c-0.02-0.68-0.08-1.36-0.16-2.04c-0.02-0.17-0.04-0.33-0.06-0.5c-0.09-0.67-0.2-1.34-0.34-1.99
				c-0.01-0.02-0.01-0.04-0.02-0.06c-0.14-0.64-0.31-1.27-0.51-1.9c-0.05-0.15-0.1-0.31-0.15-0.46c-0.21-0.64-0.43-1.27-0.69-1.89
				c-0.01-0.03-0.02-0.05-0.04-0.08c-0.25-0.6-0.53-1.18-0.82-1.75c-0.07-0.14-0.14-0.28-0.21-0.41c-0.32-0.59-0.65-1.17-1.01-1.74
				c-0.02-0.03-0.04-0.06-0.06-0.09c-0.35-0.54-0.72-1.06-1.11-1.56c-0.09-0.12-0.18-0.24-0.27-0.36c-0.42-0.53-0.85-1.04-1.31-1.54
				c-0.01-0.01-0.01-0.02-0.02-0.03l19.9-61.82l12.59,3.82c0.73,0.22,1.46,0.32,2.18,0.32c3.22,0,6.19-2.09,7.17-5.32
				c1.2-3.96-1.04-8.15-5-9.35l-12.35-3.74l2.1-6.54l3.6-11.17l129.65,37.95l-6.94,11.31l-3.83,6.24l-78.84-23.91
				c-3.97-1.21-8.15,1.04-9.35,5c-1.2,3.96,1.04,8.15,5,9.35l75.09,22.77l-26.62,43.38L-5737.3-1659.86z"/>
		</g>
	</g>
	<g>
		<g>
			<path d="M-5816.26-1604.12c-19.94,0-36.16,16.22-36.16,36.16c0,19.94,16.22,36.16,36.16,36.16c19.94,0,36.16-16.22,36.16-36.16
				C-5780.1-1587.9-5796.32-1604.12-5816.26-1604.12z M-5816.26-1546.8c-11.67,0-21.16-9.49-21.16-21.16
				c0-11.67,9.49-21.16,21.16-21.16c11.67,0,21.17,9.49,21.17,21.16C-5795.1-1556.29-5804.59-1546.8-5816.26-1546.8z"/>
		</g>
	</g>
	<g>
		<g>
			<path d="M-5439.66-1591.3c-0.01-0.42-0.03-0.84-0.04-1.26c-0.02-0.53-0.04-1.06-0.06-1.59c-0.03-0.57-0.06-1.14-0.09-1.71
				c-0.02-0.34-0.04-0.67-0.06-1.01c-0.05-0.71-0.1-1.42-0.16-2.13c-0.01-0.11-0.02-0.23-0.03-0.34
				c-1.19-13.56-4.56-26.51-9.75-38.48c-0.07-0.17-0.15-0.33-0.22-0.49c-0.26-0.6-0.52-1.19-0.8-1.79c-0.3-0.66-0.61-1.32-0.92-1.97
				c-0.06-0.12-0.11-0.24-0.17-0.36c-4.32-8.99-9.72-17.48-16.13-25.25c-0.21-0.26-0.44-0.5-0.69-0.72
				c-13.4-15.98-30.73-28.56-50.48-36.25c-0.11-0.05-0.22-0.11-0.33-0.16c-8.34-3.21-16.94-5.49-25.72-6.84
				c-0.08-0.01-0.17-0.03-0.25-0.04c-0.9-0.14-1.8-0.26-2.7-0.38c-0.18-0.02-0.36-0.05-0.54-0.07c-0.81-0.1-1.62-0.19-2.44-0.28
				c-0.25-0.03-0.49-0.05-0.74-0.08c-0.75-0.07-1.5-0.14-2.26-0.2c-0.29-0.02-0.58-0.05-0.88-0.07c-0.72-0.05-1.44-0.1-2.16-0.14
				c-0.31-0.02-0.63-0.04-0.94-0.05c-0.74-0.04-1.48-0.06-2.22-0.08c-0.29-0.01-0.58-0.02-0.87-0.03c-1.02-0.03-2.05-0.04-3.08-0.04
				c-1.03,0-2.05,0.01-3.07,0.04c-0.29,0.01-0.58,0.02-0.87,0.03c-0.74,0.02-1.48,0.05-2.22,0.08c-0.31,0.02-0.62,0.04-0.94,0.05
				c-0.72,0.04-1.45,0.08-2.17,0.14c-0.29,0.02-0.58,0.05-0.87,0.07c-0.76,0.06-1.51,0.13-2.27,0.2c-0.24,0.02-0.48,0.05-0.73,0.07
				c-0.82,0.08-1.64,0.18-2.45,0.28c-0.17,0.02-0.35,0.04-0.52,0.07c-0.91,0.12-1.82,0.24-2.73,0.38c-0.08,0.01-0.15,0.02-0.23,0.03
				c-8.78,1.35-17.39,3.63-25.73,6.84c-0.12,0.05-0.22,0.11-0.33,0.16c-19.76,7.69-37.08,20.28-50.49,36.26
				c-0.24,0.22-0.47,0.46-0.68,0.72c-6.4,7.77-11.8,16.25-16.12,25.24c-0.07,0.15-0.14,0.29-0.21,0.44c-0.3,0.63-0.6,1.26-0.88,1.89
				c-0.28,0.61-0.55,1.22-0.82,1.83c-0.06,0.15-0.13,0.3-0.2,0.45c-5.2,11.98-8.57,24.93-9.76,38.5c-0.01,0.11-0.02,0.23-0.03,0.34
				c-0.06,0.71-0.12,1.42-0.16,2.13c-0.02,0.33-0.04,0.67-0.06,1c-0.03,0.57-0.07,1.14-0.09,1.72c-0.02,0.53-0.04,1.06-0.06,1.59
				c-0.01,0.42-0.03,0.84-0.04,1.27c-0.02,0.98-0.04,1.96-0.04,2.95c0,0.37,0.01,0.73,0.01,1.1l0.01,0.52c0,0.01,0,0.01,0,0.02
				c0.31,23.71,7.26,45.85,19.08,64.63c0.12,0.24,0.24,0.47,0.38,0.7c16.31,25.59,41.26,44.35,70.27,52.81
				c0.07,0.02,0.15,0.03,0.22,0.05c11.05,3.21,22.72,4.94,34.79,4.94c12.07,0,23.75-1.73,34.79-4.94c0.07-0.02,0.15-0.03,0.22-0.05
				c29.01-8.47,53.96-27.22,70.27-52.81c0.14-0.22,0.26-0.46,0.38-0.7c11.82-18.78,18.77-40.91,19.08-64.63c0,0,0,0,0,0l0.01-0.46
				c0.01-0.39,0.01-0.78,0.01-1.18C-5439.63-1589.34-5439.64-1590.32-5439.66-1591.3z M-5470.97-1645.92
				c2.22,3.59,4.24,7.33,6.05,11.18c0.24,0.52,0.49,1.04,0.72,1.57c0.05,0.1,0.09,0.21,0.14,0.31c4.29,9.68,7.18,19.97,8.54,30.52
				l-23.07-17.03L-5470.97-1645.92z M-5482.22-1661.05l-11.07,38.54l-23.62,9.2l-39.98-27.78v-23.58l35.52-24.67
				C-5506.3-1682.89-5492.95-1673.16-5482.22-1661.05z M-5527.17-1602.18l-14.13,41.58h-46.18l-14.13-41.58l37.22-25.86
				L-5527.17-1602.18z M-5581.48-1696.79c0.18-0.03,0.35-0.06,0.52-0.08c0.67-0.1,1.34-0.19,2.01-0.28
				c0.33-0.04,0.65-0.09,0.98-0.13c0.59-0.07,1.19-0.14,1.79-0.2c0.42-0.05,0.84-0.09,1.26-0.13c0.54-0.05,1.07-0.1,1.61-0.14
				c0.5-0.04,1-0.07,1.51-0.11c0.47-0.03,0.95-0.06,1.42-0.09c0.61-0.03,1.23-0.06,1.85-0.08c0.38-0.01,0.75-0.03,1.13-0.04
				c1-0.03,2.01-0.04,3.01-0.04c1.01,0,2.01,0.02,3.01,0.04c0.38,0.01,0.75,0.03,1.13,0.04c0.62,0.02,1.23,0.05,1.85,0.08
				c0.48,0.03,0.95,0.06,1.42,0.09c0.5,0.03,1.01,0.07,1.51,0.11c0.54,0.04,1.07,0.09,1.61,0.14c0.42,0.04,0.84,0.08,1.26,0.13
				c0.6,0.06,1.19,0.13,1.78,0.2c0.33,0.04,0.66,0.08,0.99,0.13c0.67,0.09,1.34,0.18,2.01,0.28c0.18,0.03,0.35,0.06,0.53,0.08
				c2.73,0.43,5.42,0.96,8.08,1.58l-25.17,17.49l-25.17-17.49C-5586.9-1695.83-5584.21-1696.36-5581.48-1696.79z M-5607.4-1689.34
				l35.52,24.67v23.58l-39.94,27.75l-23.67-9.22l-11.05-38.49C-5635.83-1673.16-5622.48-1682.89-5607.4-1689.34z M-5664.68-1632.94
				c0.03-0.06,0.06-0.13,0.08-0.19c0.26-0.58,0.53-1.15,0.79-1.72c1.79-3.81,3.79-7.5,5.99-11.06l7.62,26.55l-23.07,17.03
				C-5671.89-1612.91-5668.99-1623.23-5664.68-1632.94z M-5659.02-1532.8c-8.78-14.89-14.14-32.02-15-50.31l34-25.11l23.65,9.21
				l15.09,44.41l-16.36,22.99L-5659.02-1532.8z M-5648.14-1517.48l29.03,0.84l9.64,28.36
				C-5624.45-1495.05-5637.63-1505.1-5648.14-1517.48z M-5537.29-1481.98c-8.67,2.21-17.75,3.39-27.1,3.39
				c-9.35,0-18.43-1.18-27.1-3.39l-13.92-40.96l16.12-22.66h49.79l16.13,22.67L-5537.29-1481.98z M-5519.31-1488.28l9.64-28.36
				l29.02-0.84C-5491.14-1505.1-5504.33-1495.05-5519.31-1488.28z M-5469.76-1532.8l-41.39,1.2l-16.35-22.99l15.08-44.37l23.71-9.23
				l33.96,25.08C-5455.62-1564.83-5460.98-1547.7-5469.76-1532.8z"/>
		</g>
	</g>
</g>
<g>
	<g>
		<path class="st0" d="M124.07,177.33L179.93,3.73c0.69-2.15,2.69-3.6,4.94-3.6L341.63,0c4.06,0,6.56,4.45,4.43,7.91L205.27,237.35
			l-13.54,26.87l-83.45-49.48L124.07,177.33z"/>
		<path class="st1" d="M341.63,0l-33.74,0.03L162.26,237.35l-3.65,7.24l33.12,19.64l13.54-26.87L346.07,7.91
			C348.19,4.45,345.7,0,341.63,0z"/>
		<polygon class="st2" points="274.21,125.01 152.38,89.35 124.07,177.33 108.28,214.74 191.73,264.22 205.27,237.35 		"/>
		<polygon class="st3" points="274.21,125.01 237.75,114.34 162.26,237.35 158.62,244.58 191.73,264.22 205.27,237.35 		"/>
		<path class="st4" d="M174.22,241.63l8.54-20.1c6.93-16.33,23.56-26.38,41.24-24.93l5.98,0.5l-24.87,50.99L174.22,241.63z"/>
		<path class="st5" d="M306.03,381l-42.78-52.6L213,242.83c-1.67-2.85-4.48-4.84-7.72-5.49l-55.57-11.02
			c-2.95-0.59-5.76-1.74-8.26-3.41c-6.16-4.11-9.97-10.93-10.22-18.34l-0.51-15.38c-0.16-4.79-2.63-9.22-6.64-11.86
			c-0.93-0.61-2.13-0.66-3.12-0.15c-6.08,3.15-27.41,14.62-35.54,24.3c-9.52,11.34-28.07,45.08-28.07,45.08l0,0l-4.32,6.54
			c-1.77,2.68-1.09,6.28,1.54,8.13c16.92,11.88,75.54,53.28,113.65,83.61c38.57,30.69,106.4,59.07,125.85,67.17
			c2.9,1.21,6.25,0.19,7.99-2.42l0,0l2.73-4.09l2.41-3.62C311.51,395.43,311.03,386.92,306.03,381z"/>
		<path class="st4" d="M306.03,381l-42.78-52.6L213,242.83c-1.67-2.85-4.48-4.84-7.72-5.49l-38.12-7.56l69.75,124.95l41.01,50.43
			c6.82,2.95,12.4,5.28,16.16,6.85c2.9,1.21,6.25,0.19,7.99-2.42l2.73-4.09l2.41-3.62C311.51,395.43,311.03,386.92,306.03,381z"/>
		<path class="st6" d="M92.52,288.21c2.97-3,5.78-6.67,8.35-11.15c18.77-32.74-2.81-64.95-13.44-77.75
			c-0.73,0.73-1.41,1.45-2.01,2.17c-9.52,11.34-28.07,45.08-28.07,45.08l-4.32,6.54c-1.77,2.68-1.09,6.28,1.54,8.13
			C61.57,266.14,75.68,276.09,92.52,288.21z"/>
		<path class="st7" d="M178.12,330.61c-22.45-17.87-79.15-55.25-100.13-72.57c-4.66-3.85-8.15-8.92-10.11-14.64l-3.32-9.64
			l-7.2,12.8l-4.32,6.54c-1.77,2.68-1.09,6.28,1.54,8.13c0.63,0.44,1.31,0.92,2.05,1.44c1.06,0.75,1.47,2.13,0.97,3.33l-4.26,10.32
			c-0.87,2.1-0.19,4.53,1.65,5.87l4.52,3.29c1.84,1.34,4.36,1.25,6.09-0.23l8.77-7.45c0.97-0.82,2.37-0.88,3.4-0.15
			c4.23,3.02,8.8,6.29,13.6,9.74c1.04,0.75,1.44,2.12,0.95,3.31l-4.61,11.15c-0.87,2.1-0.19,4.53,1.65,5.87l4.52,3.29
			c1.84,1.34,4.36,1.25,6.09-0.23l9.23-7.84c0.98-0.83,2.39-0.89,3.43-0.13c19.02,13.91,39.19,28.99,55.57,42.02
			c9.05,7.2,19.91,14.41,31.48,21.32c1.08,0.65,1.6,1.94,1.25,3.15l-2.36,8.21c-0.5,1.73,0.25,3.57,1.81,4.45l3.83,2.18
			c1.56,0.89,3.53,0.59,4.76-0.72l5.85-6.23c0.86-0.92,2.24-1.14,3.35-0.53c4.75,2.58,9.53,5.1,14.26,7.53
			c1.13,0.58,1.72,1.84,1.44,3.08l-1.71,7.58c-0.4,1.75,0.46,3.55,2.07,4.34l3.95,1.96c1.61,0.8,3.55,0.39,4.71-0.99l4.96-5.93
			c0.82-0.98,2.2-1.27,3.34-0.71c5.04,2.43,6.35,2.34,10.96,4.46c1.18,0.55,1.82,1.85,1.53,3.12l-1.56,6.91
			c-0.38,1.69,0.44,3.41,1.99,4.18l3.8,1.88c1.55,0.77,3.42,0.37,4.53-0.95l5.06-6.05c0.79-0.94,2.11-1.25,3.24-0.76
			c5.57,2.43,10.13,4.36,13.31,5.68c2.9,1.21,6.25,0.19,7.99-2.42l5.14-7.71C307.21,401.88,223.05,366.37,178.12,330.61z"/>
		<circle class="st3" cx="368.71" cy="249.99" r="97.8"/>
		<g>
			<path class="st8" d="M368.71,152.2c-6.47,0-12.78,0.63-18.9,1.83c44.97,8.81,78.9,48.42,78.9,95.96s-33.93,87.16-78.9,95.96
				c6.12,1.2,12.43,1.83,18.9,1.83c54.01,0,97.79-43.78,97.79-97.79S422.72,152.2,368.71,152.2z"/>
			<polygon class="st8" points="143.82,115.97 258.43,150.73 274.21,125.01 152.38,89.35 			"/>
		</g>
		<polygon class="st9" points="258.43,150.73 274.21,125.01 237.75,114.34 222.16,139.73 		"/>
		<circle class="st10" cx="158.66" cy="267" r="23.91"/>
		<g>
			<path class="st7" d="M208.73,267.09c-3.31,0-6.08-2.6-6.24-5.94c-0.17-3.45,2.49-6.39,5.94-6.56l14.36-0.71
				c3.46-0.17,6.39,2.49,6.56,5.94c0.17,3.45-2.49,6.39-5.94,6.56l-14.36,0.71C208.94,267.08,208.84,267.09,208.73,267.09z"/>
			<path class="st7" d="M219.88,286.12c-3.31,0-6.08-2.6-6.24-5.94c-0.17-3.45,2.49-6.39,5.94-6.56l14.36-0.71
				c3.44-0.17,6.39,2.49,6.56,5.94c0.17,3.45-2.49,6.39-5.94,6.56l-14.36,0.71C220.09,286.12,219.99,286.12,219.88,286.12z"/>
			<path class="st7" d="M231.76,306.3c-3.31,0-6.08-2.6-6.24-5.94c-0.17-3.45,2.49-6.39,5.94-6.56l14.36-0.71
				c3.44-0.15,6.38,2.49,6.56,5.94c0.17,3.45-2.49,6.39-5.94,6.56l-14.36,0.71C231.97,306.3,231.87,306.3,231.76,306.3z"/>
			<path class="st7" d="M243.96,327.07c-3.31,0-6.08-2.6-6.24-5.94c-0.17-3.45,2.49-6.39,5.94-6.56l14.36-0.71
				c3.43-0.15,6.38,2.49,6.56,5.94c0.17,3.45-2.49,6.39-5.94,6.56l-14.36,0.71C244.17,327.06,244.06,327.07,243.96,327.07z"/>
			<path class="st7" d="M438.71,230.76l27.77,20.51c0.01-0.43,0.02-0.85,0.02-1.28c0-23.62-8.37-45.29-22.32-62.19l-8.86,30.85
				l-34.05,13.26l-26.32-18.29v-34.89l28.85-20.04c-10.9-4.19-22.73-6.5-35.11-6.5c-12.37,0-24.21,2.3-35.11,6.5l28.85,20.04v34.89
				l-26.29,18.26l-34.09-13.28l-8.85-30.81c-13.94,16.9-22.32,38.57-22.32,62.19c0,0.43,0.01,0.85,0.02,1.28l27.81-20.53
				l34.23,13.33l9.44,27.79l-22.47,31.59l-33.76-0.98c12.59,19.76,32.08,34.69,55.08,41.4l-11.23-33.04l22.36-31.43h32.62
				l22.37,31.44l-11.23,33.04c23-6.71,42.49-21.64,55.08-41.4l-33.76,0.98l-22.47-31.58l9.43-27.75L438.71,230.76z"/>
		</g>
		<g>
			<path class="st11" d="M387.35,170.13l16.46-11.44c0,0,0,0,0,0c-4.67-1.8-9.51-3.24-14.48-4.31c-0.14-0.03-0.28-0.06-0.42-0.09
				c-0.54-0.11-1.09-0.22-1.64-0.33c-0.23-0.04-0.45-0.09-0.68-0.13c-0.5-0.09-1-0.18-1.5-0.26c-0.28-0.05-0.56-0.09-0.84-0.14
				c-0.47-0.07-0.93-0.14-1.4-0.21c-0.32-0.05-0.64-0.09-0.97-0.14c-0.44-0.06-0.88-0.12-1.32-0.17c-0.36-0.04-0.71-0.08-1.07-0.12
				c-0.42-0.05-0.83-0.09-1.25-0.13c-0.39-0.04-0.78-0.07-1.17-0.1c-0.39-0.03-0.78-0.07-1.18-0.1c-0.43-0.03-0.86-0.06-1.29-0.08
				c-0.36-0.02-0.73-0.05-1.09-0.06c-0.49-0.02-0.99-0.04-1.49-0.06c-0.3-0.01-0.61-0.02-0.91-0.03c-0.74-0.02-1.48-0.03-2.22-0.03
				c-0.06,0-0.13,0-0.19,0c-0.11,0-0.22,0-0.33,0c-0.68,0-1.36,0.01-2.04,0.03c-0.23,0.01-0.45,0.02-0.68,0.02
				c-0.57,0.02-1.13,0.03-1.7,0.06c-0.21,0.01-0.42,0.03-0.63,0.04c-0.58,0.03-1.16,0.06-1.74,0.11c-0.18,0.01-0.36,0.03-0.54,0.04
				c-0.61,0.05-1.22,0.1-1.83,0.16c-0.15,0.01-0.29,0.03-0.44,0.05c-0.64,0.06-1.28,0.13-1.92,0.21c-0.12,0.01-0.25,0.03-0.37,0.05
				c-0.66,0.08-1.31,0.17-1.97,0.26c-0.11,0.02-0.22,0.03-0.34,0.05c-0.66,0.1-1.31,0.2-1.96,0.31c-0.12,0.02-0.24,0.04-0.36,0.06
				c-0.63,0.11-1.27,0.23-1.89,0.35c-0.05,0.01-0.1,0.02-0.16,0.03C363.58,156.73,376.31,162.32,387.35,170.13z"/>
			<path class="st11" d="M417.48,303.45l-2.49-3.49c-2.31,3.87-4.87,7.57-7.67,11.08l-11.16,32.85c6.43-1.88,12.59-4.4,18.41-7.49
				c0.04-0.02,0.09-0.05,0.13-0.07c0.59-0.31,1.17-0.63,1.75-0.96c0.08-0.04,0.15-0.09,0.23-0.13c0.56-0.31,1.11-0.63,1.66-0.96
				c0.1-0.06,0.19-0.11,0.29-0.17c0.54-0.32,1.07-0.64,1.6-0.97c0.1-0.06,0.21-0.13,0.31-0.19c0.53-0.33,1.05-0.66,1.57-1
				c0.1-0.07,0.2-0.13,0.3-0.2c0.52-0.34,1.04-0.69,1.55-1.04c0.09-0.06,0.18-0.13,0.28-0.19c0.52-0.36,1.04-0.72,1.56-1.09
				c0.07-0.05,0.14-0.1,0.21-0.15c0.54-0.39,1.07-0.78,1.6-1.18c0.02-0.02,0.04-0.03,0.07-0.05c3.4-2.57,6.63-5.37,9.67-8.36
				c0.08-0.08,0.16-0.16,0.24-0.23c0.41-0.41,0.81-0.82,1.22-1.23c0.12-0.13,0.25-0.25,0.37-0.38c0.38-0.39,0.75-0.79,1.12-1.18
				c0.14-0.15,0.29-0.31,0.43-0.46c0.35-0.38,0.7-0.77,1.05-1.16c0.15-0.17,0.3-0.34,0.45-0.51c0.34-0.39,0.67-0.77,1.01-1.16
				c0.15-0.18,0.31-0.36,0.46-0.54c0.33-0.39,0.65-0.78,0.97-1.17c0.15-0.19,0.3-0.38,0.45-0.56c0.32-0.4,0.63-0.79,0.94-1.19
				c0.15-0.19,0.29-0.38,0.44-0.57c0.31-0.41,0.62-0.82,0.92-1.23c0.14-0.18,0.27-0.37,0.4-0.55c0.31-0.42,0.61-0.85,0.92-1.27
				c0.12-0.17,0.24-0.34,0.36-0.51c0.31-0.45,0.62-0.9,0.93-1.35c0.09-0.13,0.17-0.26,0.26-0.39c0.33-0.5,0.66-1,0.98-1.51
				c0,0,0,0,0,0L417.48,303.45z"/>
			<path class="st11" d="M466.45,246.84c-0.02-0.53-0.03-1.07-0.06-1.6c-0.01-0.3-0.03-0.61-0.05-0.91
				c-0.03-0.48-0.06-0.97-0.09-1.45c-0.02-0.32-0.05-0.63-0.07-0.94c-0.04-0.47-0.08-0.94-0.13-1.41c-0.03-0.31-0.06-0.63-0.09-0.94
				c-0.05-0.48-0.11-0.95-0.16-1.43c-0.04-0.3-0.07-0.6-0.11-0.9c-0.07-0.52-0.14-1.03-0.22-1.55c-0.04-0.25-0.07-0.5-0.11-0.75
				c-0.12-0.76-0.24-1.52-0.38-2.27c-0.01-0.03-0.01-0.06-0.02-0.09c-0.13-0.73-0.27-1.45-0.42-2.17c-0.05-0.25-0.11-0.5-0.16-0.75
				c-0.11-0.5-0.21-1-0.33-1.49c-0.07-0.29-0.14-0.58-0.2-0.87c-0.11-0.46-0.22-0.91-0.33-1.36c-0.08-0.3-0.15-0.6-0.23-0.9
				c-0.12-0.44-0.23-0.88-0.36-1.32c-0.08-0.3-0.17-0.6-0.25-0.9c-0.13-0.45-0.26-0.89-0.4-1.33c-0.09-0.28-0.17-0.57-0.26-0.85
				c-0.15-0.48-0.31-0.96-0.47-1.44c-0.08-0.24-0.15-0.48-0.24-0.71c-0.24-0.71-0.49-1.42-0.75-2.12c-0.02-0.04-0.03-0.09-0.05-0.13
				c-0.24-0.66-0.49-1.32-0.75-1.97c-0.09-0.24-0.19-0.48-0.29-0.72c-0.18-0.46-0.37-0.91-0.56-1.37c-0.12-0.28-0.23-0.55-0.35-0.82
				c-0.18-0.42-0.36-0.83-0.54-1.24c-0.13-0.28-0.25-0.56-0.38-0.84c-0.19-0.4-0.37-0.81-0.56-1.21c-0.13-0.28-0.26-0.56-0.4-0.83
				c-0.2-0.41-0.4-0.81-0.6-1.21c-0.13-0.26-0.27-0.53-0.4-0.79c-0.23-0.44-0.46-0.87-0.69-1.3c-0.12-0.22-0.24-0.45-0.36-0.67
				c-0.35-0.65-0.71-1.29-1.08-1.93c-0.04-0.07-0.08-0.13-0.12-0.2c-0.33-0.57-0.67-1.14-1.01-1.71c-0.14-0.23-0.28-0.45-0.42-0.67
				c-0.25-0.41-0.5-0.81-0.76-1.22c-0.16-0.25-0.33-0.51-0.49-0.76c-0.24-0.37-0.48-0.74-0.73-1.11c-0.17-0.26-0.35-0.52-0.52-0.77
				c-0.25-0.36-0.49-0.72-0.74-1.07c-0.18-0.25-0.36-0.51-0.54-0.76c-0.26-0.36-0.52-0.72-0.78-1.07c-0.18-0.24-0.35-0.48-0.53-0.72
				c-0.29-0.38-0.58-0.76-0.87-1.14c-0.16-0.21-0.32-0.42-0.48-0.62c-0.45-0.57-0.91-1.14-1.37-1.7l-8.86,30.85l-10.48,4.08
				c1.16,4.02,2.08,8.15,2.72,12.36l11.14-4.34l27.77,20.51c0.01-0.43,0.02-0.85,0.02-1.28c0-0.8-0.01-1.59-0.03-2.38
				C466.47,247.36,466.46,247.1,466.45,246.84z"/>
		</g>
	</g>
	<g>
		<g>
			<path class="st12" d="M383.26,491.18h-205.5V337.78h205.5c42.36,0,76.7,34.34,76.7,76.7S425.63,491.18,383.26,491.18z"/>
			<path class="st13" d="M383.26,337.78h-25.02c42.36,0,76.7,34.34,76.7,76.7s-34.34,76.7-76.7,76.7h25.02
				c42.36,0,76.7-34.34,76.7-76.7S425.63,337.78,383.26,337.78z"/>
			<g>
				<path class="st14" d="M291.27,435.89c-0.01,0-0.02,0-0.04,0c-4.55,0.03-9.43,0.04-13.12,0.05v-49.17c0-3.46-2.8-6.25-6.25-6.25
					c-3.46,0-6.25,2.8-6.25,6.25v55.37c0,3.05,2.19,5.65,5.2,6.16c0.45,0.08,14.17,0.13,20.5,0.09c3.45-0.02,6.24-2.83,6.22-6.29
					C297.5,438.67,294.7,435.89,291.27,435.89L291.27,435.89z"/>
				<path class="st14" d="M312.91,380.51c-3.46,0-6.25,2.8-6.25,6.25v55.42c0,3.46,2.8,6.25,6.25,6.25c3.46,0,6.25-2.8,6.25-6.25
					v-55.42C319.16,383.31,316.36,380.51,312.91,380.51L312.91,380.51z"/>
				<path class="st14" d="M418.74,435.68h-16.88v-14.95h15.18c3.46,0,6.25-2.8,6.25-6.25c0-3.45-2.8-6.25-6.25-6.25h-15.18v-14.95
					h16.88c3.46,0,6.25-2.8,6.25-6.25c0-3.46-2.8-6.25-6.25-6.25H395.6c-3.46,0-6.25,2.8-6.25,6.25v54.92c0,3.46,2.8,6.25,6.25,6.25
					h23.14c3.46,0,6.25-2.8,6.25-6.25S422.19,435.68,418.74,435.68L418.74,435.68z"/>
				<path class="st14" d="M375.93,380.94c-3.28-1.09-6.82,0.68-7.91,3.96l-13.45,40.48l-14.11-40.66c-1.13-3.26-4.7-4.99-7.96-3.86
					c-3.26,1.13-4.99,4.7-3.86,7.96l18.96,54.63c1.06,2.99,3.9,4.99,7.07,4.99c0.02,0,0.03,0,0.05,0c3.19-0.02,6.03-2.07,7.07-5.13
					l18.1-54.47C380.98,385.56,379.21,382.02,375.93,380.94L375.93,380.94z"/>
			</g>
		</g>
		<g>
			<circle class="st12" cx="143.01" cy="414.48" r="97.52"/>
			<path class="st13" d="M143.01,316.96c-4.24,0-8.41,0.27-12.51,0.8c47.89,6.16,85.01,47.19,85.01,96.72s-37.12,90.56-85.01,96.72
				c4.1,0.53,8.27,0.8,12.51,0.8c53.77,0,97.52-43.75,97.52-97.52C240.53,360.71,196.78,316.96,143.01,316.96z"/>
			
				<ellipse transform="matrix(0.1591 -0.9873 0.9873 0.1591 -288.9417 489.6751)" class="st14" cx="142.98" cy="414.45" rx="72.49" ry="72.49"/>
			<path class="st12" d="M122.83,443.12v-57.27c0-5.8,6.6-9.13,11.27-5.69l38.81,28.64c3.83,2.83,3.83,8.55,0,11.38l-38.81,28.64
				C129.43,452.25,122.83,448.92,122.83,443.12L122.83,443.12z"/>
			<path class="st13" d="M172.91,408.79l-38.81-28.64c-4.67-3.44-11.27-0.11-11.27,5.69v4.46c16.28,12.01,16.28,36.35,0,48.36v4.46
				c0,5.8,6.6,9.13,11.27,5.69l38.81-28.64C176.74,417.34,176.74,411.62,172.91,408.79L172.91,408.79z"/>
		</g>
	</g>
</g>
</svg>
